<?xml version="1.0" encoding="UTF-8"?>
<svg xmlns="http://www.w3.org/2000/svg" xmlns:xlink="http://www.w3.org/1999/xlink" viewBox="0 0 500 500" version="1.2" baseProfile="tiny-ps">
  <title>Blubany</title>
  <g id="0c28ae5169">
    <rect x="0" width="375" y="0" height="374.999991" style="fill:#ffffff;fill-opacity:1;stroke:none;"/>
    <rect x="0" width="375" y="0" height="374.999991" style="fill:#f6f6f6;fill-opacity:1;stroke:none;"/>
    <g style="fill:#000000;fill-opacity:1;">
      <g transform="translate(97.996316, 203.000132)">
        <path style="stroke:none" d="M 0.375 0 L 0.375 -1.453125 L 0.078125 -1.453125 L 0.078125 -1.65625 L 0.375 -1.65625 C 0.351562 -1.726562 0.34375 -1.796875 0.34375 -1.859375 C 0.34375 -1.972656 0.363281 -2.066406 0.40625 -2.140625 C 0.457031 -2.210938 0.519531 -2.265625 0.59375 -2.296875 C 0.675781 -2.335938 0.769531 -2.359375 0.875 -2.359375 C 1.039062 -2.359375 1.171875 -2.320312 1.265625 -2.25 L 1.171875 -2.078125 L 1.140625 -2.0625 C 1.066406 -2.113281 0.976562 -2.140625 0.875 -2.140625 C 0.78125 -2.140625 0.707031 -2.113281 0.65625 -2.0625 C 0.613281 -2.019531 0.59375 -1.953125 0.59375 -1.859375 C 0.59375 -1.804688 0.597656 -1.738281 0.609375 -1.65625 L 1.140625 -1.65625 L 1.140625 -1.453125 L 0.609375 -1.453125 L 0.609375 0 Z M 0.375 0 "/>
      </g>
    </g>
    <g style="fill:#000000;fill-opacity:1;">
      <g transform="translate(99.110597, 203.000132)">
        <path style="stroke:none" d="M 0.859375 0.703125 C 0.597656 0.703125 0.40625 0.65625 0.28125 0.5625 C 0.15625 0.476562 0.09375 0.363281 0.09375 0.21875 C 0.09375 0.125 0.117188 0.0507812 0.171875 0 C 0.234375 -0.0507812 0.320312 -0.0859375 0.4375 -0.109375 L 0.4375 -0.140625 C 0.382812 -0.171875 0.34375 -0.207031 0.3125 -0.25 C 0.289062 -0.289062 0.28125 -0.335938 0.28125 -0.390625 C 0.28125 -0.453125 0.296875 -0.503906 0.328125 -0.546875 C 0.367188 -0.585938 0.429688 -0.617188 0.515625 -0.640625 L 0.515625 -0.671875 C 0.335938 -0.765625 0.25 -0.921875 0.25 -1.140625 C 0.25 -1.242188 0.269531 -1.335938 0.3125 -1.421875 C 0.363281 -1.503906 0.4375 -1.566406 0.53125 -1.609375 C 0.625 -1.660156 0.726562 -1.6875 0.84375 -1.6875 C 0.988281 -1.6875 1.109375 -1.65625 1.203125 -1.59375 C 1.234375 -1.632812 1.253906 -1.675781 1.265625 -1.71875 C 1.285156 -1.769531 1.300781 -1.820312 1.3125 -1.875 L 1.34375 -1.890625 L 1.546875 -1.84375 C 1.535156 -1.757812 1.507812 -1.6875 1.46875 -1.625 C 1.425781 -1.570312 1.367188 -1.523438 1.296875 -1.484375 L 1.296875 -1.453125 C 1.347656 -1.410156 1.382812 -1.359375 1.40625 -1.296875 C 1.4375 -1.242188 1.453125 -1.179688 1.453125 -1.109375 C 1.453125 -1.003906 1.425781 -0.910156 1.375 -0.828125 C 1.320312 -0.742188 1.25 -0.675781 1.15625 -0.625 C 1.070312 -0.582031 0.96875 -0.5625 0.84375 -0.5625 C 0.832031 -0.5625 0.8125 -0.5625 0.78125 -0.5625 C 0.738281 -0.5625 0.707031 -0.5625 0.6875 -0.5625 C 0.632812 -0.5625 0.59375 -0.546875 0.5625 -0.515625 C 0.53125 -0.492188 0.515625 -0.460938 0.515625 -0.421875 C 0.515625 -0.367188 0.53125 -0.328125 0.5625 -0.296875 C 0.59375 -0.273438 0.648438 -0.265625 0.734375 -0.265625 L 1.125 -0.25 C 1.289062 -0.25 1.414062 -0.210938 1.5 -0.140625 C 1.582031 -0.0664062 1.625 0.0351562 1.625 0.171875 C 1.625 0.273438 1.597656 0.363281 1.546875 0.4375 C 1.492188 0.519531 1.410156 0.582031 1.296875 0.625 C 1.179688 0.675781 1.035156 0.703125 0.859375 0.703125 Z M 0.84375 -0.765625 C 0.96875 -0.765625 1.0625 -0.796875 1.125 -0.859375 C 1.1875 -0.921875 1.21875 -1.007812 1.21875 -1.125 C 1.21875 -1.238281 1.1875 -1.328125 1.125 -1.390625 C 1.0625 -1.453125 0.96875 -1.484375 0.84375 -1.484375 C 0.726562 -1.484375 0.640625 -1.453125 0.578125 -1.390625 C 0.515625 -1.328125 0.484375 -1.238281 0.484375 -1.125 C 0.484375 -1.007812 0.515625 -0.921875 0.578125 -0.859375 C 0.640625 -0.796875 0.726562 -0.765625 0.84375 -0.765625 Z M 0.859375 0.5 C 0.972656 0.5 1.066406 0.484375 1.140625 0.453125 C 1.222656 0.421875 1.28125 0.382812 1.3125 0.34375 C 1.351562 0.300781 1.375 0.253906 1.375 0.203125 C 1.375 0.148438 1.363281 0.109375 1.34375 0.078125 C 1.320312 0.046875 1.289062 0.0195312 1.25 0 C 1.207031 -0.0078125 1.15625 -0.015625 1.09375 -0.015625 L 0.71875 -0.03125 L 0.65625 -0.03125 C 0.457031 -0.03125 0.359375 0.046875 0.359375 0.203125 C 0.359375 0.398438 0.523438 0.5 0.859375 0.5 Z M 0.859375 0.5 "/>
      </g>
    </g>
    <g style="fill:#000000;fill-opacity:1;">
      <g transform="translate(100.786543, 203.000132)">
        <path style="stroke:none" d="M 0.859375 0.03125 C 0.722656 0.03125 0.601562 0 0.5 -0.0625 C 0.40625 -0.125 0.328125 -0.21875 0.265625 -0.34375 C 0.210938 -0.476562 0.1875 -0.640625 0.1875 -0.828125 C 0.1875 -1.015625 0.210938 -1.171875 0.265625 -1.296875 C 0.328125 -1.429688 0.410156 -1.53125 0.515625 -1.59375 C 0.617188 -1.65625 0.742188 -1.6875 0.890625 -1.6875 C 0.992188 -1.6875 1.085938 -1.664062 1.171875 -1.625 C 1.265625 -1.582031 1.34375 -1.515625 1.40625 -1.421875 L 1.4375 -1.421875 L 1.4375 -2.328125 L 1.6875 -2.328125 L 1.6875 0 L 1.4375 0 L 1.4375 -0.234375 L 1.40625 -0.25 C 1.351562 -0.164062 1.28125 -0.0976562 1.1875 -0.046875 C 1.09375 0.00390625 0.984375 0.03125 0.859375 0.03125 Z M 0.9375 -0.1875 C 1.09375 -0.1875 1.210938 -0.238281 1.296875 -0.34375 C 1.390625 -0.445312 1.4375 -0.609375 1.4375 -0.828125 C 1.4375 -1.046875 1.390625 -1.207031 1.296875 -1.3125 C 1.210938 -1.414062 1.09375 -1.46875 0.9375 -1.46875 C 0.78125 -1.46875 0.65625 -1.414062 0.5625 -1.3125 C 0.476562 -1.207031 0.4375 -1.046875 0.4375 -0.828125 C 0.4375 -0.398438 0.601562 -0.1875 0.9375 -0.1875 Z M 0.9375 -0.1875 "/>
      </g>
    </g>
    <g style="fill:#000000;fill-opacity:1;">
      <g transform="translate(102.769676, 203.000132)">
        <path style="stroke:none" d="M 0.859375 0.703125 C 0.597656 0.703125 0.40625 0.65625 0.28125 0.5625 C 0.15625 0.476562 0.09375 0.363281 0.09375 0.21875 C 0.09375 0.125 0.117188 0.0507812 0.171875 0 C 0.234375 -0.0507812 0.320312 -0.0859375 0.4375 -0.109375 L 0.4375 -0.140625 C 0.382812 -0.171875 0.34375 -0.207031 0.3125 -0.25 C 0.289062 -0.289062 0.28125 -0.335938 0.28125 -0.390625 C 0.28125 -0.453125 0.296875 -0.503906 0.328125 -0.546875 C 0.367188 -0.585938 0.429688 -0.617188 0.515625 -0.640625 L 0.515625 -0.671875 C 0.335938 -0.765625 0.25 -0.921875 0.25 -1.140625 C 0.25 -1.242188 0.269531 -1.335938 0.3125 -1.421875 C 0.363281 -1.503906 0.4375 -1.566406 0.53125 -1.609375 C 0.625 -1.660156 0.726562 -1.6875 0.84375 -1.6875 C 0.988281 -1.6875 1.109375 -1.65625 1.203125 -1.59375 C 1.234375 -1.632812 1.253906 -1.675781 1.265625 -1.71875 C 1.285156 -1.769531 1.300781 -1.820312 1.3125 -1.875 L 1.34375 -1.890625 L 1.546875 -1.84375 C 1.535156 -1.757812 1.507812 -1.6875 1.46875 -1.625 C 1.425781 -1.570312 1.367188 -1.523438 1.296875 -1.484375 L 1.296875 -1.453125 C 1.347656 -1.410156 1.382812 -1.359375 1.40625 -1.296875 C 1.4375 -1.242188 1.453125 -1.179688 1.453125 -1.109375 C 1.453125 -1.003906 1.425781 -0.910156 1.375 -0.828125 C 1.320312 -0.742188 1.25 -0.675781 1.15625 -0.625 C 1.070312 -0.582031 0.96875 -0.5625 0.84375 -0.5625 C 0.832031 -0.5625 0.8125 -0.5625 0.78125 -0.5625 C 0.738281 -0.5625 0.707031 -0.5625 0.6875 -0.5625 C 0.632812 -0.5625 0.59375 -0.546875 0.5625 -0.515625 C 0.53125 -0.492188 0.515625 -0.460938 0.515625 -0.421875 C 0.515625 -0.367188 0.53125 -0.328125 0.5625 -0.296875 C 0.59375 -0.273438 0.648438 -0.265625 0.734375 -0.265625 L 1.125 -0.25 C 1.289062 -0.25 1.414062 -0.210938 1.5 -0.140625 C 1.582031 -0.0664062 1.625 0.0351562 1.625 0.171875 C 1.625 0.273438 1.597656 0.363281 1.546875 0.4375 C 1.492188 0.519531 1.410156 0.582031 1.296875 0.625 C 1.179688 0.675781 1.035156 0.703125 0.859375 0.703125 Z M 0.84375 -0.765625 C 0.96875 -0.765625 1.0625 -0.796875 1.125 -0.859375 C 1.1875 -0.921875 1.21875 -1.007812 1.21875 -1.125 C 1.21875 -1.238281 1.1875 -1.328125 1.125 -1.390625 C 1.0625 -1.453125 0.96875 -1.484375 0.84375 -1.484375 C 0.726562 -1.484375 0.640625 -1.453125 0.578125 -1.390625 C 0.515625 -1.328125 0.484375 -1.238281 0.484375 -1.125 C 0.484375 -1.007812 0.515625 -0.921875 0.578125 -0.859375 C 0.640625 -0.796875 0.726562 -0.765625 0.84375 -0.765625 Z M 0.859375 0.5 C 0.972656 0.5 1.066406 0.484375 1.140625 0.453125 C 1.222656 0.421875 1.28125 0.382812 1.3125 0.34375 C 1.351562 0.300781 1.375 0.253906 1.375 0.203125 C 1.375 0.148438 1.363281 0.109375 1.34375 0.078125 C 1.320312 0.046875 1.289062 0.0195312 1.25 0 C 1.207031 -0.0078125 1.15625 -0.015625 1.09375 -0.015625 L 0.71875 -0.03125 L 0.65625 -0.03125 C 0.457031 -0.03125 0.359375 0.046875 0.359375 0.203125 C 0.359375 0.398438 0.523438 0.5 0.859375 0.5 Z M 0.859375 0.5 "/>
      </g>
    </g>
    <g style="fill:#000000;fill-opacity:1;">
      <g transform="translate(104.471224, 203.000132)">
        <path style="stroke:none" d="M 0.375 0 L 0.375 -1.453125 L 0.078125 -1.453125 L 0.078125 -1.65625 L 0.375 -1.65625 C 0.351562 -1.726562 0.34375 -1.796875 0.34375 -1.859375 C 0.34375 -1.972656 0.363281 -2.066406 0.40625 -2.140625 C 0.457031 -2.210938 0.519531 -2.265625 0.59375 -2.296875 C 0.675781 -2.335938 0.769531 -2.359375 0.875 -2.359375 C 1.039062 -2.359375 1.171875 -2.320312 1.265625 -2.25 L 1.171875 -2.078125 L 1.140625 -2.0625 C 1.066406 -2.113281 0.976562 -2.140625 0.875 -2.140625 C 0.78125 -2.140625 0.707031 -2.113281 0.65625 -2.0625 C 0.613281 -2.019531 0.59375 -1.953125 0.59375 -1.859375 C 0.59375 -1.804688 0.597656 -1.738281 0.609375 -1.65625 L 1.140625 -1.65625 L 1.140625 -1.453125 L 0.609375 -1.453125 L 0.609375 0 Z M 0.375 0 "/>
      </g>
    </g>
    <g style="fill:#000000;fill-opacity:1;">
      <g transform="translate(105.635203, 203.000132)">
        <path style="stroke:none" d="M 0.859375 0.03125 C 0.722656 0.03125 0.601562 0 0.5 -0.0625 C 0.40625 -0.125 0.328125 -0.21875 0.265625 -0.34375 C 0.210938 -0.476562 0.1875 -0.640625 0.1875 -0.828125 C 0.1875 -1.015625 0.210938 -1.171875 0.265625 -1.296875 C 0.328125 -1.429688 0.410156 -1.53125 0.515625 -1.59375 C 0.617188 -1.65625 0.742188 -1.6875 0.890625 -1.6875 C 0.992188 -1.6875 1.085938 -1.664062 1.171875 -1.625 C 1.265625 -1.582031 1.34375 -1.515625 1.40625 -1.421875 L 1.4375 -1.421875 L 1.4375 -2.328125 L 1.6875 -2.328125 L 1.6875 0 L 1.4375 0 L 1.4375 -0.234375 L 1.40625 -0.25 C 1.351562 -0.164062 1.28125 -0.0976562 1.1875 -0.046875 C 1.09375 0.00390625 0.984375 0.03125 0.859375 0.03125 Z M 0.9375 -0.1875 C 1.09375 -0.1875 1.210938 -0.238281 1.296875 -0.34375 C 1.390625 -0.445312 1.4375 -0.609375 1.4375 -0.828125 C 1.4375 -1.046875 1.390625 -1.207031 1.296875 -1.3125 C 1.210938 -1.414062 1.09375 -1.46875 0.9375 -1.46875 C 0.78125 -1.46875 0.65625 -1.414062 0.5625 -1.3125 C 0.476562 -1.207031 0.4375 -1.046875 0.4375 -0.828125 C 0.4375 -0.398438 0.601562 -0.1875 0.9375 -0.1875 Z M 0.9375 -0.1875 "/>
      </g>
    </g>
    <g style="fill:#000000;fill-opacity:1;">
      <g transform="translate(107.618335, 203.000132)">
        <path style="stroke:none" d="M 0.859375 0.703125 C 0.597656 0.703125 0.40625 0.65625 0.28125 0.5625 C 0.15625 0.476562 0.09375 0.363281 0.09375 0.21875 C 0.09375 0.125 0.117188 0.0507812 0.171875 0 C 0.234375 -0.0507812 0.320312 -0.0859375 0.4375 -0.109375 L 0.4375 -0.140625 C 0.382812 -0.171875 0.34375 -0.207031 0.3125 -0.25 C 0.289062 -0.289062 0.28125 -0.335938 0.28125 -0.390625 C 0.28125 -0.453125 0.296875 -0.503906 0.328125 -0.546875 C 0.367188 -0.585938 0.429688 -0.617188 0.515625 -0.640625 L 0.515625 -0.671875 C 0.335938 -0.765625 0.25 -0.921875 0.25 -1.140625 C 0.25 -1.242188 0.269531 -1.335938 0.3125 -1.421875 C 0.363281 -1.503906 0.4375 -1.566406 0.53125 -1.609375 C 0.625 -1.660156 0.726562 -1.6875 0.84375 -1.6875 C 0.988281 -1.6875 1.109375 -1.65625 1.203125 -1.59375 C 1.234375 -1.632812 1.253906 -1.675781 1.265625 -1.71875 C 1.285156 -1.769531 1.300781 -1.820312 1.3125 -1.875 L 1.34375 -1.890625 L 1.546875 -1.84375 C 1.535156 -1.757812 1.507812 -1.6875 1.46875 -1.625 C 1.425781 -1.570312 1.367188 -1.523438 1.296875 -1.484375 L 1.296875 -1.453125 C 1.347656 -1.410156 1.382812 -1.359375 1.40625 -1.296875 C 1.4375 -1.242188 1.453125 -1.179688 1.453125 -1.109375 C 1.453125 -1.003906 1.425781 -0.910156 1.375 -0.828125 C 1.320312 -0.742188 1.25 -0.675781 1.15625 -0.625 C 1.070312 -0.582031 0.96875 -0.5625 0.84375 -0.5625 C 0.832031 -0.5625 0.8125 -0.5625 0.78125 -0.5625 C 0.738281 -0.5625 0.707031 -0.5625 0.6875 -0.5625 C 0.632812 -0.5625 0.59375 -0.546875 0.5625 -0.515625 C 0.53125 -0.492188 0.515625 -0.460938 0.515625 -0.421875 C 0.515625 -0.367188 0.53125 -0.328125 0.5625 -0.296875 C 0.59375 -0.273438 0.648438 -0.265625 0.734375 -0.265625 L 1.125 -0.25 C 1.289062 -0.25 1.414062 -0.210938 1.5 -0.140625 C 1.582031 -0.0664062 1.625 0.0351562 1.625 0.171875 C 1.625 0.273438 1.597656 0.363281 1.546875 0.4375 C 1.492188 0.519531 1.410156 0.582031 1.296875 0.625 C 1.179688 0.675781 1.035156 0.703125 0.859375 0.703125 Z M 0.84375 -0.765625 C 0.96875 -0.765625 1.0625 -0.796875 1.125 -0.859375 C 1.1875 -0.921875 1.21875 -1.007812 1.21875 -1.125 C 1.21875 -1.238281 1.1875 -1.328125 1.125 -1.390625 C 1.0625 -1.453125 0.96875 -1.484375 0.84375 -1.484375 C 0.726562 -1.484375 0.640625 -1.453125 0.578125 -1.390625 C 0.515625 -1.328125 0.484375 -1.238281 0.484375 -1.125 C 0.484375 -1.007812 0.515625 -0.921875 0.578125 -0.859375 C 0.640625 -0.796875 0.726562 -0.765625 0.84375 -0.765625 Z M 0.859375 0.5 C 0.972656 0.5 1.066406 0.484375 1.140625 0.453125 C 1.222656 0.421875 1.28125 0.382812 1.3125 0.34375 C 1.351562 0.300781 1.375 0.253906 1.375 0.203125 C 1.375 0.148438 1.363281 0.109375 1.34375 0.078125 C 1.320312 0.046875 1.289062 0.0195312 1.25 0 C 1.207031 -0.0078125 1.15625 -0.015625 1.09375 -0.015625 L 0.71875 -0.03125 L 0.65625 -0.03125 C 0.457031 -0.03125 0.359375 0.046875 0.359375 0.203125 C 0.359375 0.398438 0.523438 0.5 0.859375 0.5 Z M 0.859375 0.5 "/>
      </g>
    </g>
    <g style="fill:#000000;fill-opacity:1;">
      <g transform="translate(109.319883, 203.000132)">
        <path style="stroke:none" d="M 0.375 0 L 0.375 -1.453125 L 0.078125 -1.453125 L 0.078125 -1.65625 L 0.375 -1.65625 C 0.351562 -1.726562 0.34375 -1.796875 0.34375 -1.859375 C 0.34375 -1.972656 0.363281 -2.066406 0.40625 -2.140625 C 0.457031 -2.210938 0.519531 -2.265625 0.59375 -2.296875 C 0.675781 -2.335938 0.769531 -2.359375 0.875 -2.359375 C 1.039062 -2.359375 1.171875 -2.320312 1.265625 -2.25 L 1.171875 -2.078125 L 1.140625 -2.0625 C 1.066406 -2.113281 0.976562 -2.140625 0.875 -2.140625 C 0.78125 -2.140625 0.707031 -2.113281 0.65625 -2.0625 C 0.613281 -2.019531 0.59375 -1.953125 0.59375 -1.859375 C 0.59375 -1.804688 0.597656 -1.738281 0.609375 -1.65625 L 1.140625 -1.65625 L 1.140625 -1.453125 L 0.609375 -1.453125 L 0.609375 0 Z M 0.375 0 "/>
      </g>
    </g>
    <path style=" stroke:none;fill-rule:evenodd;fill:#081ff7;fill-opacity:1;" d="M 266.976562 224.675781 L 164.984375 122.683594 C 163.648438 121.347656 162.242188 120.195312 160.800781 119.230469 C 159.234375 118.183594 157.59375 117.3125 155.933594 116.628906 L 155.910156 116.628906 C 154.234375 115.929688 152.46875 115.40625 150.65625 115.035156 C 148.867188 114.675781 147.054688 114.5 145.238281 114.5 C 143.425781 114.5 141.613281 114.675781 139.8125 115.035156 C 138 115.394531 136.246094 115.929688 134.558594 116.628906 L 134.535156 116.628906 C 132.875 117.3125 131.257812 118.171875 129.726562 119.195312 C 128.238281 120.195312 126.808594 121.359375 125.472656 122.695312 L 124.714844 123.449219 C 123.726562 124.519531 122.832031 125.667969 122.03125 126.867188 C 120.984375 128.4375 120.113281 130.074219 119.429688 131.738281 C 118.742188 133.398438 118.207031 135.175781 117.835938 137.011719 C 117.476562 138.800781 117.300781 140.617188 117.300781 142.429688 C 117.300781 144.230469 117.476562 146.042969 117.835938 147.832031 C 118.207031 149.667969 118.730469 151.445312 119.417969 153.097656 C 120.089844 154.734375 120.949219 156.351562 121.984375 157.910156 C 122.984375 159.40625 124.132812 160.824219 125.425781 162.128906 L 126.390625 163.09375 L 167.832031 204.523438 L 190.554688 227.246094 C 215.191406 251.882812 243.757812 246.953125 269.558594 227.246094 Z M 266.976562 224.675781 "/>
    <g clip-rule="nonzero" clip-path="url(#586936a82c)">
      <path style=" stroke:none;fill-rule:evenodd;fill:#081ff7;fill-opacity:1;" d="M 283.851562 156.339844 C 279.925781 154.710938 275.730469 153.898438 271.558594 153.898438 C 267.328125 153.898438 263.132812 154.710938 259.226562 156.328125 C 255.484375 157.875 251.949219 160.199219 248.847656 163.300781 L 248.824219 163.300781 L 244.152344 167.972656 L 245.234375 169.054688 L 288.5 212.332031 L 289.582031 213.414062 L 294.253906 208.742188 L 294.253906 208.71875 C 295.789062 207.183594 297.113281 205.570312 298.230469 203.894531 C 299.425781 202.09375 300.425781 200.222656 301.214844 198.304688 C 302.007812 196.386719 302.621094 194.355469 303.039062 192.238281 C 303.445312 190.183594 303.65625 188.089844 303.65625 186 C 303.65625 183.917969 303.445312 181.816406 303.039062 179.757812 C 302.621094 177.640625 302.007812 175.609375 301.214844 173.691406 C 300.425781 171.773438 299.425781 169.902344 298.230469 168.101562 C 297.113281 166.425781 295.789062 164.8125 294.253906 163.277344 C 292.71875 161.742188 291.105469 160.417969 289.429688 159.304688 C 287.640625 158.128906 285.757812 157.128906 283.851562 156.339844 Z M 283.851562 156.339844 "/>
    </g>
    <g clip-rule="nonzero" clip-path="url(#3817e72ced)">
      <path style=" stroke:none;fill-rule:evenodd;fill:#081ff7;fill-opacity:1;" d="M 108.445312 177.027344 C 105.179688 175.679688 101.65625 174.992188 98.113281 174.992188 C 94.59375 174.992188 91.082031 175.667969 87.804688 177.027344 L 87.78125 177.027344 C 84.65625 178.316406 81.703125 180.269531 79.101562 182.871094 L 79.078125 182.871094 C 77.84375 184.105469 76.742188 185.464844 75.789062 186.90625 C 74.777344 188.414062 73.941406 189.996094 73.277344 191.589844 L 73.277344 191.613281 C 72.605469 193.226562 72.09375 194.925781 71.753906 196.667969 C 71.40625 198.386719 71.230469 200.140625 71.230469 201.886719 C 71.230469 203.628906 71.40625 205.382812 71.753906 207.105469 C 72.117188 208.882812 72.625 210.589844 73.277344 212.183594 C 73.941406 213.785156 74.777344 215.355469 75.789062 216.867188 C 76.71875 218.261719 77.820312 219.609375 79.113281 220.898438 L 86.398438 228.183594 C 87.96875 229.753906 89.699219 231.101562 91.511719 232.230469 C 93.617188 233.542969 95.835938 234.613281 98.066406 235.449219 C 100.53125 236.378906 103.054688 237.054688 105.480469 237.507812 C 120.683594 240.34375 138.582031 239.273438 157.292969 223.003906 L 150.480469 216.191406 L 117.125 182.882812 C 114.523438 180.28125 111.558594 178.328125 108.445312 177.027344 Z M 108.445312 177.027344 "/>
    </g>
    <g clip-rule="nonzero" clip-path="url(#c315f5afd0)">
      <path style=" stroke:none;fill-rule:evenodd;fill:#081ff7;fill-opacity:1;" d="M 230.394531 107.039062 C 227.023438 105.644531 223.40625 104.949219 219.769531 104.949219 C 216.132812 104.949219 212.507812 105.644531 209.148438 107.039062 C 205.917969 108.375 202.871094 110.375 200.210938 113.046875 L 195.574219 117.6875 L 194.726562 118.535156 L 195.5625 119.359375 L 195.585938 119.359375 L 233.878906 157.652344 L 239.351562 152.179688 L 239.375 152.179688 C 240.632812 150.925781 241.769531 149.519531 242.78125 148.007812 C 243.828125 146.4375 244.6875 144.835938 245.351562 143.21875 C 246.035156 141.570312 246.558594 139.8125 246.917969 137.988281 C 247.265625 136.210938 247.453125 134.410156 247.453125 132.609375 C 247.453125 130.808594 247.277344 129.003906 246.917969 127.226562 C 246.558594 125.414062 246.035156 123.660156 245.351562 122.007812 C 244.664062 120.347656 243.804688 118.730469 242.792969 117.222656 L 242.769531 117.199219 C 241.804688 115.757812 240.667969 114.363281 239.339844 113.035156 C 236.667969 110.375 233.613281 108.375 230.394531 107.039062 Z M 230.394531 107.039062 "/>
    </g>
  </g>
</svg>
